static pose
version=1
nRows=1
nColumns=319
inDegrees=no
endheader
time	R.Shoulder_tx	R.Shoulder_ty	R.Shoulder_tz	R.Clavicle_tx	R.Clavicle_ty	R.Clavicle_tz	R.Bicep_tx	R.Bicep_ty	R.Bicep_tz	R.Elbow_tx	R.Elbow_ty	R.Elbow_tz	R.Forearm_tx	R.Forearm_ty	R.Forearm_tz	R.Wrist_tx	R.Wrist_ty	R.Wrist_tz	L.Shoulder_tx	L.Shoulder_ty	L.Shoulder_tz	L.Clavicle_tx	L.Clavicle_ty	L.Clavicle_tz	L.Scapula_tx	L.Scapula_ty	L.Scapula_tz	L.Bicep_tx	L.Bicep_ty	L.Bicep_tz	L.Elbow_tx	L.Elbow_ty	L.Elbow_tz	L.Forearm_tx	L.Forearm_ty	L.Forearm_tz	L.Wrist_tx	L.Wrist_ty	L.Wrist_tz	R.ASIS_tx	R.ASIS_ty	R.ASIS_tz	R.PSIS_tx	R.PSIS_ty	R.PSIS_tz	S2_tx	S2_ty	S2_tz	L.PSIS_tx	L.PSIS_ty	L.PSIS_tz	L.ASIS_tx	L.ASIS_ty	L.ASIS_tz	R.TH1_tx	R.TH1_ty	R.TH1_tz	R.TH2_tx	R.TH2_ty	R.TH2_tz	R.TH3_tx	R.TH3_ty	R.TH3_tz	R.Knee_tx	R.Knee_ty	R.Knee_tz	R.SH1_tx	R.SH1_ty	R.SH1_tz	R.SH2_tx	R.SH2_ty	R.SH2_tz	R.SH3_tx	R.SH3_ty	R.SH3_tz	R.SH4_tx	R.SH4_ty	R.SH4_tz	R.Ankle_tx	R.Ankle_ty	R.Ankle_tz	R.Heel_tx	R.Heel_ty	R.Heel_tz	R.MT5_tx	R.MT5_ty	R.MT5_tz	L.TH1_tx	L.TH1_ty	L.TH1_tz	L.TH2_tx	L.TH2_ty	L.TH2_tz	L.TH3_tx	L.TH3_ty	L.TH3_tz	L.TH4_tx	L.TH4_ty	L.TH4_tz	L.Knee_tx	L.Knee_ty	L.Knee_tz	L.SH1_tx	L.SH1_ty	L.SH1_tz	L.SH2_tx	L.SH2_ty	L.SH2_tz	L.SH3_tx	L.SH3_ty	L.SH3_tz	L.Ankle_tx	L.Ankle_ty	L.Ankle_tz	L.Heel_tx	L.Heel_ty	L.Heel_tz	L.MT5_tx	L.MT5_ty	L.MT5_tz	R_HJC_tx	R_HJC_ty	R_HJC_tz	L_HJC_tx	L_HJC_ty	L_HJC_tz	gnd_pelvis/pelvis_tilt/value	gnd_pelvis/pelvis_tilt/speed	gnd_pelvis/pelvis_list/value	gnd_pelvis/pelvis_list/speed	gnd_pelvis/pelvis_rot/value	gnd_pelvis/pelvis_rot/speed	gnd_pelvis/pelvis_tx/value	gnd_pelvis/pelvis_tx/speed	gnd_pelvis/pelvis_ty/value	gnd_pelvis/pelvis_ty/speed	gnd_pelvis/pelvis_tz/value	gnd_pelvis/pelvis_tz/speed	hip_r/hip_flex_r/value	hip_r/hip_flex_r/speed	hip_r/hip_add_r/value	hip_r/hip_add_r/speed	hip_r/hip_rot_r/value	hip_r/hip_rot_r/speed	pf_r/pf_flex_r/value	pf_r/pf_flex_r/speed	pf_r/pf_rot_r/value	pf_r/pf_rot_r/speed	pf_r/pf_tilt_r/value	pf_r/pf_tilt_r/speed	pf_r/pf_tx_r/value	pf_r/pf_tx_r/speed	pf_r/pf_ty_r/value	pf_r/pf_ty_r/speed	pf_r/pf_tz_r/value	pf_r/pf_tz_r/speed	knee_r/knee_flex_r/value	knee_r/knee_flex_r/speed	knee_r/knee_add_r/value	knee_r/knee_add_r/speed	knee_r/knee_rot_r/value	knee_r/knee_rot_r/speed	knee_r/knee_tx_r/value	knee_r/knee_tx_r/speed	knee_r/knee_ty_r/value	knee_r/knee_ty_r/speed	knee_r/knee_tz_r/value	knee_r/knee_tz_r/speed	ankle_r/ankle_flex_r/value	ankle_r/ankle_flex_r/speed	subtalar_r/subt_angle_r/value	subtalar_r/subt_angle_r/speed	mtp_r/mtp_angle_r/value	mtp_r/mtp_angle_r/speed	hip_l/hip_flex_l/value	hip_l/hip_flex_l/speed	hip_l/hip_add_l/value	hip_l/hip_add_l/speed	hip_l/hip_rot_l/value	hip_l/hip_rot_l/speed	pf_l/pf_l_r3/value	pf_l/pf_l_r3/speed	pf_l/pf_l_tx/value	pf_l/pf_l_tx/speed	pf_l/pf_l_ty/value	pf_l/pf_l_ty/speed	knee_l/knee_flex_l/value	knee_l/knee_flex_l/speed	ankle_l/ankle_flex_l/value	ankle_l/ankle_flex_l/speed	subtalar_l/subt_angle_l/value	subtalar_l/subt_angle_l/speed	mtp_l/mtp_angle_l/value	mtp_l/mtp_angle_l/speed	pelvis_torso/lumbar_ext/value	pelvis_torso/lumbar_ext/speed	pelvis_torso/lumbar_latbend/value	pelvis_torso/lumbar_latbend/speed	pelvis_torso/lumbar_rot/value	pelvis_torso/lumbar_rot/speed	torso_neckhead/neck_ext/value	torso_neckhead/neck_ext/speed	torso_neckhead/neck_latbend/value	torso_neckhead/neck_latbend/speed	torso_neckhead/neck_rot/value	torso_neckhead/neck_rot/speed	acromial_r/arm_add_r/value	acromial_r/arm_add_r/speed	acromial_r/arm_flex_r/value	acromial_r/arm_flex_r/speed	acromial_r/arm_rot_r/value	acromial_r/arm_rot_r/speed	elbow_r/elbow_flex_r/value	elbow_r/elbow_flex_r/speed	radioulnar_r/pro_sup_r/value	radioulnar_r/pro_sup_r/speed	radius_hand_r/wrist_flex_r/value	radius_hand_r/wrist_flex_r/speed	acromial_l/arm_add_l/value	acromial_l/arm_add_l/speed	acromial_l/arm_flex_l/value	acromial_l/arm_flex_l/speed	acromial_l/arm_rot_l/value	acromial_l/arm_rot_l/speed	elbow_l/elbow_flex_l/value	elbow_l/elbow_flex_l/speed	radioulnar_l/pro_sup_l/value	radioulnar_l/pro_sup_l/speed	radius_hand_l/wrist_flex_l/value	radius_hand_l/wrist_flex_l/speed	addbrev_r/activation	addbrev_r/fiber_length	addlong_r/activation	addlong_r/fiber_length	addmagProx_r/activation	addmagProx_r/fiber_length	addmagMid_r/activation	addmagMid_r/fiber_length	addmagDist_r/activation	addmagDist_r/fiber_length	addmagIsch_r/activation	addmagIsch_r/fiber_length	bflh_r/activation	bflh_r/fiber_length	bfsh_r/activation	bfsh_r/fiber_length	edl_r/activation	edl_r/fiber_length	ehl_r/activation	ehl_r/fiber_length	fdl_r/activation	fdl_r/fiber_length	fhl_r/activation	fhl_r/fiber_length	gaslat_r/activation	gaslat_r/fiber_length	gasmed_r/activation	gasmed_r/fiber_length	gem_r/activation	gem_r/fiber_length	glmax1_r/activation	glmax1_r/fiber_length	glmax2_r/activation	glmax2_r/fiber_length	glmax3_r/activation	glmax3_r/fiber_length	glmed1_r/activation	glmed1_r/fiber_length	glmed2_r/activation	glmed2_r/fiber_length	glmed3_r/activation	glmed3_r/fiber_length	glmin1_r/activation	glmin1_r/fiber_length	glmin2_r/activation	glmin2_r/fiber_length	glmin3_r/activation	glmin3_r/fiber_length	grac_r/activation	grac_r/fiber_length	iliacus_r/activation	iliacus_r/fiber_length	pect_r/activation	pect_r/fiber_length	perbrev_r/activation	perbrev_r/fiber_length	perlong_r/activation	perlong_r/fiber_length	pertert_r/activation	pertert_r/fiber_length	piri_r/activation	piri_r/fiber_length	psoas_r/activation	psoas_r/fiber_length	quadfem_r/activation	quadfem_r/fiber_length	recfem_r/activation	recfem_r/fiber_length	sart_r/activation	sart_r/fiber_length	semimem_r/activation	semimem_r/fiber_length	semiten_r/activation	semiten_r/fiber_length	soleus_r/activation	soleus_r/fiber_length	tfl_r/activation	tfl_r/fiber_length	tibant_r/activation	tibant_r/fiber_length	tibpost_r/activation	tibpost_r/fiber_length	vasint_r/activation	vasint_r/fiber_length	vaslat_r/activation	vaslat_r/fiber_length	vasmed_r/activation	vasmed_r/fiber_length
      0.00000000	     -1.63585719	      0.07505838	      1.35723519	     -1.56900810	      0.21932552	      1.33732205	     -1.60703300	      0.05919538	      1.13041519	     -1.70342333	     -0.02330824	      1.05791919	     -1.60548619	     -0.01492671	      0.96408671	     -1.61979567	     -0.07653329	      0.86196243	     -1.58372752	      0.44624533	      1.33969057	     -1.55958914	      0.27865571	      1.33233381	     -1.73556481	      0.36473752	      1.33463214	     -1.52869829	      0.45377281	      1.18379738	     -1.54222338	      0.53563662	      1.03799486	     -1.44532014	      0.49903967	      0.99050676	     -1.40055481	      0.53484100	      0.88899671	     -1.55250481	      0.10689024	      0.91361019	     -1.78262529	      0.20663414	      0.95030086	     -1.78770510	      0.25542848	      0.94824457	     -1.77236586	      0.30996019	      0.96146143	     -1.53049124	      0.36480900	      0.90526429	     -1.53586205	      0.02947476	      0.71613029	     -1.66833471	      0.07464124	      0.65216267	     -1.63384567	      0.08096143	      0.58881848	     -1.53819495	      0.06109200	      0.48796057	     -1.54375624	      0.04790719	      0.36299981	     -1.55788462	      0.06752152	      0.29340733	     -1.62264595	      0.12711919	      0.40210957	     -1.64148014	      0.13762557	      0.33112510	     -1.62938138	      0.12331024	      0.12410410	     -1.67710276	      0.19710124	      0.10479176	     -1.54472233	      0.06391824	      0.04328676	     -1.56758200	      0.40340838	      0.63525719	     -1.56205410	      0.37557295	      0.55812033	     -1.71656110	      0.40592981	      0.62795571	     -1.71795229	      0.38547648	      0.55280624	     -1.67385010	      0.38890648	      0.47130210	     -1.63730090	      0.38499371	      0.37166795	     -1.75296157	      0.38214495	      0.38824924	     -1.76560214	      0.38359367	      0.31539210	     -1.71418414	      0.36197552	      0.07407062	     -1.80318586	      0.33241310	      0.04512786	     -1.61048295	      0.36617971	      0.02153862	     -1.63988538	      0.14856038	      0.85749281	     -1.62739129	      0.34270424	      0.83135819	     -0.96291715	      0.00000000	      1.43387013	      0.00000000	      0.88876427	      0.00000000	     -1.57694663	      0.00000000	      0.24560394	      0.00000000	      0.91188265	      0.00000000	      0.41464822	      0.00000000	      0.00521126	      0.00000000	     -0.14554254	      0.00000000	      0.00000000	      0.00000000	      0.00000000	      0.00000000	      0.00000000	      0.00000000	      0.05300000	      0.00000000	      0.00500000	      0.00000000	      0.00400000	      0.00000000	      0.28735435	      0.00000000	      0.05570465	      0.00000000	     -0.26050610	      0.00000000	     -0.07436654	      0.00000000	      0.05232723	      0.00000000	     -0.03187259	      0.00000000	     -0.24012578	      0.00000000	     -0.02260062	      0.00000000	      0.00000000	      0.00000000	     -0.04938682	      0.00000000	      0.05190319	      0.00000000	     -0.16627117	      0.00000000	      0.00113686	      0.00000000	      0.04435000	      0.00000000	     -0.41871200	      0.00000000	     -0.09103867	      0.00000000	      0.07004358	      0.00000000	     -0.01212167	      0.00000000	      0.00000000	      0.00000000	     -0.12827485	      0.00000000	      0.08129694	      0.00000000	     -0.05055315	      0.00000000	      0.00000000	      0.00000000	      0.00000000	      0.00000000	      0.00000000	      0.00000000	     -0.27968420	      0.00000000	      0.08872115	      0.00000000	     -0.17226269	      0.00000000	      0.47455907	      0.00000000	      1.07396126	      0.00000000	      0.00000000	      0.00000000	     -0.29819962	      0.00000000	      0.31427327	      0.00000000	     -0.26420073	      0.00000000	      0.64742596	      0.00000000	      1.06710893	      0.00000000	      0.00000000	      0.00000000	      0.05000000	      0.10000000	      0.05000000	      0.10000000	      0.05000000	      0.10000000	      0.05000000	      0.10000000	      0.05000000	      0.10000000	      0.05000000	      0.10000000	      0.05000000	      0.10000000	      0.05000000	      0.10000000	      0.05000000	      0.10000000	      0.05000000	      0.10000000	      0.05000000	      0.10000000	      0.05000000	      0.10000000	      0.05000000	      0.10000000	      0.05000000	      0.10000000	      0.05000000	      0.10000000	      0.05000000	      0.10000000	      0.05000000	      0.10000000	      0.05000000	      0.10000000	      0.05000000	      0.10000000	      0.05000000	      0.10000000	      0.05000000	      0.10000000	      0.05000000	      0.10000000	      0.05000000	      0.10000000	      0.05000000	      0.10000000	      0.05000000	      0.10000000	      0.05000000	      0.10000000	      0.05000000	      0.10000000	      0.05000000	      0.10000000	      0.05000000	      0.10000000	      0.05000000	      0.10000000	      0.05000000	      0.10000000	      0.05000000	      0.10000000	      0.05000000	      0.10000000	      0.05000000	      0.10000000	      0.05000000	      0.10000000	      0.05000000	      0.10000000	      0.05000000	      0.10000000	      0.05000000	      0.10000000	      0.05000000	      0.10000000	      0.05000000	      0.10000000	      0.05000000	      0.10000000	      0.05000000	      0.10000000	      0.05000000	      0.10000000	      0.05000000	      0.10000000
